<?xml version="1.0" standalone="no"?>
<!DOCTYPE svg PUBLIC "-//W3C//DTD SVG 20010904//EN"
 "http://www.w3.org/TR/2001/REC-SVG-20010904/DTD/svg10.dtd">
<svg version="1.0" xmlns="http://www.w3.org/2000/svg"
 width="24.000000pt" height="24.000000pt" viewBox="0 0 24.000000 24.000000"
 preserveAspectRatio="xMidYMid meet">

<g transform="translate(0.000000,24.000000) scale(0.100000,-0.100000)"
fill="#000000" stroke="none">
<path d="M25 204 c-24 -38 -11 -79 45 -134 59 -60 101 -72 136 -39 30 28 30
33 -3 54 -21 14 -30 15 -45 6 -16 -10 -24 -7 -49 18 -25 25 -28 33 -18 49 9
15 8 24 -6 45 -22 34 -38 34 -60 1z m49 -10 c3 -8 3 -27 0 -40 -10 -38 40 -87
81 -80 16 3 37 1 45 -4 13 -8 12 -12 -6 -31 l-21 -21 -39 20 c-45 23 -75 53
-99 100 -15 32 -15 35 1 53 21 23 30 24 38 3z"/>
</g>
</svg>
